<svg width="185" height="78" viewBox="0 0 185 78" fill="none" xmlns="http://www.w3.org/2000/svg">
<path d="M37 9H4V41.5M37 9H70V74H49.9M37 9V40.6136H58M4 41.5V74H37M4 41.5H24.7" stroke="black" stroke-width="7" stroke-linecap="round"/>
<path d="M80.7148 8.5625H91.0469C93.2083 8.5625 95.0638 8.88802 96.6133 9.53906C98.1628 10.1901 99.3542 11.1536 100.188 12.4297C101.021 13.7057 101.438 15.2747 101.438 17.1367C101.438 18.6081 101.177 19.8841 100.656 20.9648C100.135 22.0456 99.3997 22.9505 98.4492 23.6797C97.5117 24.4089 96.4049 24.9818 95.1289 25.3984L93.4492 26.2578H84.3281L84.2891 22.0195H91.1055C92.2122 22.0195 93.1302 21.8242 93.8594 21.4336C94.5885 21.043 95.1354 20.5026 95.5 19.8125C95.8776 19.1224 96.0664 18.3346 96.0664 17.4492C96.0664 16.4987 95.8841 15.6784 95.5195 14.9883C95.1549 14.2852 94.6016 13.7448 93.8594 13.3672C93.1172 12.9896 92.1797 12.8008 91.0469 12.8008H86.0859V37H80.7148V8.5625ZM96.7695 37L90.1875 24.2656L95.8711 24.2461L102.531 36.7266V37H96.7695ZM104.836 26.6484V26.2383C104.836 24.6888 105.057 23.263 105.5 21.9609C105.943 20.6458 106.587 19.5065 107.434 18.543C108.28 17.5794 109.315 16.8307 110.539 16.2969C111.763 15.75 113.156 15.4766 114.719 15.4766C116.307 15.4766 117.714 15.75 118.938 16.2969C120.174 16.8307 121.216 17.5794 122.062 18.543C122.909 19.5065 123.553 20.6458 123.996 21.9609C124.439 23.263 124.66 24.6888 124.66 26.2383V26.6484C124.66 28.1849 124.439 29.6107 123.996 30.9258C123.553 32.2279 122.909 33.3672 122.062 34.3438C121.216 35.3073 120.181 36.056 118.957 36.5898C117.733 37.1237 116.333 37.3906 114.758 37.3906C113.195 37.3906 111.796 37.1237 110.559 36.5898C109.322 36.056 108.28 35.3073 107.434 34.3438C106.587 33.3672 105.943 32.2279 105.5 30.9258C105.057 29.6107 104.836 28.1849 104.836 26.6484ZM109.992 26.2383V26.6484C109.992 27.5729 110.083 28.4388 110.266 29.2461C110.448 30.0534 110.728 30.763 111.105 31.375C111.483 31.987 111.971 32.4688 112.57 32.8203C113.182 33.1589 113.911 33.3281 114.758 33.3281C115.591 33.3281 116.307 33.1589 116.906 32.8203C117.505 32.4688 117.993 31.987 118.371 31.375C118.762 30.763 119.048 30.0534 119.23 29.2461C119.413 28.4388 119.504 27.5729 119.504 26.6484V26.2383C119.504 25.3268 119.413 24.474 119.23 23.6797C119.048 22.8724 118.762 22.1628 118.371 21.5508C117.993 20.9258 117.499 20.4375 116.887 20.0859C116.288 19.7214 115.565 19.5391 114.719 19.5391C113.885 19.5391 113.169 19.7214 112.57 20.0859C111.971 20.4375 111.483 20.9258 111.105 21.5508C110.728 22.1628 110.448 22.8724 110.266 23.6797C110.083 24.474 109.992 25.3268 109.992 26.2383ZM127.492 26.6484V26.2383C127.492 24.6888 127.714 23.263 128.156 21.9609C128.599 20.6458 129.243 19.5065 130.09 18.543C130.936 17.5794 131.971 16.8307 133.195 16.2969C134.419 15.75 135.812 15.4766 137.375 15.4766C138.964 15.4766 140.37 15.75 141.594 16.2969C142.831 16.8307 143.872 17.5794 144.719 18.543C145.565 19.5065 146.21 20.6458 146.652 21.9609C147.095 23.263 147.316 24.6888 147.316 26.2383V26.6484C147.316 28.1849 147.095 29.6107 146.652 30.9258C146.21 32.2279 145.565 33.3672 144.719 34.3438C143.872 35.3073 142.837 36.056 141.613 36.5898C140.389 37.1237 138.99 37.3906 137.414 37.3906C135.852 37.3906 134.452 37.1237 133.215 36.5898C131.978 36.056 130.936 35.3073 130.09 34.3438C129.243 33.3672 128.599 32.2279 128.156 30.9258C127.714 29.6107 127.492 28.1849 127.492 26.6484ZM132.648 26.2383V26.6484C132.648 27.5729 132.74 28.4388 132.922 29.2461C133.104 30.0534 133.384 30.763 133.762 31.375C134.139 31.987 134.628 32.4688 135.227 32.8203C135.839 33.1589 136.568 33.3281 137.414 33.3281C138.247 33.3281 138.964 33.1589 139.562 32.8203C140.161 32.4688 140.65 31.987 141.027 31.375C141.418 30.763 141.704 30.0534 141.887 29.2461C142.069 28.4388 142.16 27.5729 142.16 26.6484V26.2383C142.16 25.3268 142.069 24.474 141.887 23.6797C141.704 22.8724 141.418 22.1628 141.027 21.5508C140.65 20.9258 140.155 20.4375 139.543 20.0859C138.944 19.7214 138.221 19.5391 137.375 19.5391C136.542 19.5391 135.826 19.7214 135.227 20.0859C134.628 20.4375 134.139 20.9258 133.762 21.5508C133.384 22.1628 133.104 22.8724 132.922 23.6797C132.74 24.474 132.648 25.3268 132.648 26.2383ZM156.203 20.2031V37H151.047V15.8672H155.91L156.203 20.2031ZM155.441 25.6719H153.859C153.859 24.2005 154.035 22.8464 154.387 21.6094C154.751 20.3724 155.285 19.2982 155.988 18.3867C156.691 17.4622 157.557 16.7461 158.586 16.2383C159.628 15.7305 160.832 15.4766 162.199 15.4766C163.15 15.4766 164.022 15.6198 164.816 15.9062C165.611 16.1797 166.294 16.6159 166.867 17.2148C167.453 17.8008 167.902 18.569 168.215 19.5195C168.527 20.457 168.684 21.5833 168.684 22.8984V37H163.527V23.4258C163.527 22.4362 163.384 21.6615 163.098 21.1016C162.824 20.5417 162.427 20.151 161.906 19.9297C161.385 19.6953 160.76 19.5781 160.031 19.5781C159.224 19.5781 158.527 19.7409 157.941 20.0664C157.368 20.3789 156.893 20.8151 156.516 21.375C156.151 21.9349 155.878 22.5794 155.695 23.3086C155.526 24.0378 155.441 24.8255 155.441 25.6719ZM168.293 24.7148L166.164 25.1055C166.177 23.7773 166.359 22.5339 166.711 21.375C167.062 20.2031 167.577 19.181 168.254 18.3086C168.944 17.4232 169.797 16.7331 170.812 16.2383C171.841 15.7305 173.026 15.4766 174.367 15.4766C175.409 15.4766 176.346 15.6263 177.18 15.9258C178.026 16.2122 178.749 16.6745 179.348 17.3125C179.947 17.9375 180.402 18.7513 180.715 19.7539C181.04 20.7565 181.203 21.9805 181.203 23.4258V37H176.008V23.4062C176.008 22.3776 175.865 21.5898 175.578 21.043C175.305 20.4961 174.908 20.1185 174.387 19.9102C173.866 19.6888 173.254 19.5781 172.551 19.5781C171.835 19.5781 171.21 19.7148 170.676 19.9883C170.155 20.2487 169.712 20.6133 169.348 21.082C168.996 21.5508 168.729 22.0977 168.547 22.7227C168.378 23.3346 168.293 23.9987 168.293 24.7148Z" fill="#2A9D8F"/>
<path d="M99.582 56.3008V60.5195H84.6211V56.3008H99.582ZM86.0859 44.5625V73H80.7148V44.5625H86.0859ZM103.566 44.5625V73H98.1953V44.5625H103.566ZM107.727 62.6484V62.2383C107.727 60.6888 107.948 59.263 108.391 57.9609C108.833 56.6458 109.478 55.5065 110.324 54.543C111.171 53.5794 112.206 52.8307 113.43 52.2969C114.654 51.75 116.047 51.4766 117.609 51.4766C119.198 51.4766 120.604 51.75 121.828 52.2969C123.065 52.8307 124.107 53.5794 124.953 54.543C125.799 55.5065 126.444 56.6458 126.887 57.9609C127.329 59.263 127.551 60.6888 127.551 62.2383V62.6484C127.551 64.1849 127.329 65.6107 126.887 66.9258C126.444 68.2279 125.799 69.3672 124.953 70.3438C124.107 71.3073 123.072 72.056 121.848 72.5898C120.624 73.1237 119.224 73.3906 117.648 73.3906C116.086 73.3906 114.686 73.1237 113.449 72.5898C112.212 72.056 111.171 71.3073 110.324 70.3438C109.478 69.3672 108.833 68.2279 108.391 66.9258C107.948 65.6107 107.727 64.1849 107.727 62.6484ZM112.883 62.2383V62.6484C112.883 63.5729 112.974 64.4388 113.156 65.2461C113.339 66.0534 113.618 66.763 113.996 67.375C114.374 67.987 114.862 68.4688 115.461 68.8203C116.073 69.1589 116.802 69.3281 117.648 69.3281C118.482 69.3281 119.198 69.1589 119.797 68.8203C120.396 68.4688 120.884 67.987 121.262 67.375C121.652 66.763 121.939 66.0534 122.121 65.2461C122.303 64.4388 122.395 63.5729 122.395 62.6484V62.2383C122.395 61.3268 122.303 60.474 122.121 59.6797C121.939 58.8724 121.652 58.1628 121.262 57.5508C120.884 56.9258 120.389 56.4375 119.777 56.0859C119.178 55.7214 118.456 55.5391 117.609 55.5391C116.776 55.5391 116.06 55.7214 115.461 56.0859C114.862 56.4375 114.374 56.9258 113.996 57.5508C113.618 58.1628 113.339 58.8724 113.156 59.6797C112.974 60.474 112.883 61.3268 112.883 62.2383ZM141.301 51.8672V55.5781H129.191V51.8672H141.301ZM132.434 46.6719H137.609V66.9062C137.609 67.5312 137.694 68.013 137.863 68.3516C138.033 68.6901 138.286 68.918 138.625 69.0352C138.964 69.1523 139.367 69.2109 139.836 69.2109C140.174 69.2109 140.487 69.1914 140.773 69.1523C141.06 69.1133 141.301 69.0742 141.496 69.0352L141.516 72.9023C141.086 73.0456 140.598 73.1628 140.051 73.2539C139.517 73.3451 138.911 73.3906 138.234 73.3906C137.076 73.3906 136.06 73.1953 135.188 72.8047C134.315 72.401 133.638 71.7565 133.156 70.8711C132.674 69.9727 132.434 68.7878 132.434 67.3164V46.6719ZM154.23 73.3906C152.629 73.3906 151.19 73.1302 149.914 72.6094C148.638 72.0885 147.551 71.3659 146.652 70.4414C145.767 69.5039 145.083 68.4167 144.602 67.1797C144.133 65.9297 143.898 64.5885 143.898 63.1562V62.375C143.898 60.7474 144.133 59.2695 144.602 57.9414C145.07 56.6003 145.734 55.4479 146.594 54.4844C147.453 53.5208 148.482 52.7786 149.68 52.2578C150.878 51.737 152.199 51.4766 153.645 51.4766C155.142 51.4766 156.464 51.7305 157.609 52.2383C158.755 52.7331 159.712 53.4362 160.48 54.3477C161.249 55.2591 161.828 56.3529 162.219 57.6289C162.609 58.8919 162.805 60.2917 162.805 61.8281V63.9961H146.242V60.4414H157.727V60.0508C157.701 59.2305 157.544 58.4818 157.258 57.8047C156.971 57.1146 156.529 56.5677 155.93 56.1641C155.331 55.7474 154.556 55.5391 153.605 55.5391C152.837 55.5391 152.167 55.7083 151.594 56.0469C151.034 56.3724 150.565 56.8411 150.188 57.4531C149.823 58.0521 149.549 58.7682 149.367 59.6016C149.185 60.4349 149.094 61.3594 149.094 62.375V63.1562C149.094 64.0417 149.211 64.862 149.445 65.6172C149.693 66.3724 150.051 67.0299 150.52 67.5898C151.001 68.1367 151.574 68.5664 152.238 68.8789C152.915 69.1784 153.684 69.3281 154.543 69.3281C155.624 69.3281 156.6 69.1198 157.473 68.7031C158.358 68.2734 159.126 67.6419 159.777 66.8086L162.375 69.5039C161.932 70.1549 161.333 70.7799 160.578 71.3789C159.836 71.9779 158.938 72.4661 157.883 72.8438C156.828 73.2083 155.611 73.3906 154.23 73.3906ZM171.73 43V73H166.555V43H171.73Z" fill="#2A9D8F"/>
</svg>
